<svg width="292" height="549" viewBox="0 0 292 549" fill="none" xmlns="http://www.w3.org/2000/svg">
<path opacity="0.15" d="M250.284 81.4692C252.769 80.7985 254.959 79.812 256.853 78.5099C258.787 77.2079 260.424 75.6098 261.766 73.7159C263.107 71.822 264.113 69.6518 264.784 67.2055C265.494 64.7592 265.849 62.0761 265.849 59.1562C265.849 53.2771 264.429 48.1872 261.588 43.8864C258.747 39.625 254.604 36.3303 249.159 34.0024C243.753 31.6744 237.184 30.5104 229.45 30.5104C221.677 30.5104 215.048 31.6349 209.564 33.884C204.079 36.133 199.897 39.3883 197.017 43.6496C194.136 47.911 192.696 53.0799 192.696 59.1562C192.696 64.5224 193.564 69.06 195.3 72.7689C197.076 76.5174 199.581 79.3583 202.817 81.2917C206.052 83.2251 209.86 84.1918 214.24 84.1918L213.588 89.6368L213.588 60.1624L234.954 60.1624L234.954 112.423L218.915 112.423C208.065 112.423 198.772 110.115 191.039 105.499C183.305 100.922 177.367 94.6084 173.224 86.5592C169.081 78.5494 167.009 69.3362 167.009 58.9195C167.009 47.3586 169.515 37.1984 174.526 28.4389C179.537 19.6794 186.679 12.8534 195.951 7.9607C205.263 3.06802 216.311 0.621681 229.095 0.621681C239.038 0.621682 247.857 2.10132 255.551 5.0606C263.285 8.01988 269.835 12.1431 275.201 17.4304C280.567 22.7571 284.631 28.9124 287.393 35.8963C290.155 42.9197 291.536 50.4757 291.536 58.5644C291.536 65.5877 290.53 72.1179 288.517 78.1548C286.505 84.2312 283.664 89.5974 279.995 94.2533C276.325 98.9487 271.965 102.756 266.915 105.676C261.864 108.596 256.321 110.411 250.284 111.121L250.284 81.4692ZM168.667 129.691L289.879 129.691L289.879 179.762C289.879 188.837 288.241 196.669 284.966 203.258C281.731 209.887 277.075 214.997 270.999 218.587C264.962 222.178 257.8 223.973 249.514 223.973C241.11 223.973 233.968 222.139 228.089 218.469C222.249 214.8 217.791 209.591 214.713 202.844C211.675 196.097 210.156 188.107 210.156 178.874L210.156 147.21L233.238 147.21L233.238 173.429C233.238 177.848 233.81 181.537 234.954 184.497C236.138 187.495 237.914 189.764 240.281 191.303C242.688 192.842 245.766 193.611 249.514 193.611C253.263 193.611 256.36 192.842 258.806 191.303C261.292 189.764 263.147 187.495 264.37 184.497C265.632 181.498 266.264 177.809 266.264 173.429L266.264 158.988L168.667 158.988L168.667 129.691ZM224.064 197.932L168.667 228.116L168.667 196.156L224.064 166.563L224.064 197.932ZM168.667 240.042L289.879 240.042L289.879 324.559L266.086 324.559L266.086 269.339L241.228 269.339L241.228 320.239L217.376 320.239L217.376 269.339L192.459 269.339L192.459 324.559L168.667 324.559L168.667 240.042ZM168.667 342.907L289.879 342.907L289.879 427.424L266.086 427.424L266.086 372.204L241.228 372.204L241.228 423.103L217.376 423.103L217.376 372.204L192.459 372.204L192.459 427.424L168.667 427.424L168.667 342.907ZM289.879 548.932L168.667 548.932L168.667 524.074L238.624 475.838L238.624 475.068L168.667 475.068L168.667 445.771L289.879 445.771L289.879 470.984L220.04 518.688L220.04 519.694L289.879 519.694L289.879 548.932ZM78.963 111.95L78.963 82.357C82.0012 81.9624 84.7435 81.1536 87.1898 79.9304C89.6362 78.7072 91.7274 77.0895 93.4635 75.0772C95.1996 73.0649 96.5214 70.6777 97.4289 67.9157C98.3759 65.1932 98.8494 62.1747 98.8494 58.8603C98.8494 52.9812 97.4092 47.911 94.5288 43.6496C91.6485 39.4277 87.4857 36.1725 82.0407 33.884C76.5956 31.6349 70.0063 30.5104 62.2727 30.5104C54.2234 30.5104 47.4763 31.6547 42.0312 33.9432C36.6256 36.2711 32.5418 39.5263 29.7798 43.7088C27.0572 47.9307 25.696 52.922 25.696 58.6827C25.696 61.9182 26.1103 64.8578 26.9389 67.5014C27.7675 70.1845 28.9709 72.5322 30.5492 74.5445C32.1669 76.5963 34.1201 78.2732 36.4086 79.5753C38.7365 80.9168 41.3604 81.844 44.2803 82.357L44.1027 111.95C38.7365 111.437 33.4493 109.878 28.241 107.274C23.0326 104.709 18.278 101.178 13.9772 96.6799C9.71586 92.1818 6.32256 86.6973 3.7973 80.2263C1.27205 73.7948 0.00942592 66.4163 0.00942628 58.0909C0.00942676 47.1218 2.41631 37.297 7.23007 28.6165C12.0833 19.9754 19.1461 13.1493 28.4185 8.13824C37.6909 3.1272 48.9757 0.621674 62.2727 0.621674C75.6092 0.621675 86.9136 3.16666 96.186 8.25662C105.458 13.3466 112.502 20.2318 117.315 28.9124C122.129 37.593 124.536 47.3191 124.536 58.0909C124.536 65.4299 123.51 72.2165 121.458 78.4507C119.446 84.685 116.487 90.1695 112.58 94.9043C108.714 99.6392 103.959 103.486 98.3167 106.446C92.6743 109.405 86.2231 111.24 78.963 111.95ZM1.66662 128.714L122.879 128.714L122.879 158.011L74.2282 158.011L74.2282 205.774L122.879 205.774L122.879 235.011L1.66662 235.011L1.66662 205.774L50.3764 205.774L50.3764 158.011L1.66662 158.011L1.66662 128.714ZM62.2727 367.794C48.9362 367.794 37.6317 365.23 28.3593 360.1C19.0869 354.971 12.0438 348.026 7.23006 339.267C2.4163 330.547 0.0094148 320.762 0.00941527 309.911C0.00941575 299.021 2.43603 289.216 7.28925 280.496C12.1425 271.776 19.1856 264.851 28.4185 259.721C37.6909 254.631 48.9756 252.087 62.2727 252.087C75.6092 252.087 86.9136 254.631 96.186 259.721C105.458 264.851 112.502 271.776 117.315 280.496C122.129 289.216 124.536 299.021 124.536 309.911C124.536 320.762 122.129 330.547 117.315 339.267C112.502 348.026 105.458 354.971 96.186 360.1C86.9136 365.23 75.6092 367.794 62.2727 367.794ZM62.2727 337.846C70.1641 337.846 76.8323 336.722 82.2774 334.473C87.7225 332.263 91.8457 329.067 94.6472 324.885C97.4487 320.742 98.8494 315.75 98.8494 309.911C98.8494 304.111 97.4487 299.119 94.6472 294.937C91.8457 290.754 87.7225 287.539 82.2774 285.29C76.8323 283.08 70.1641 281.975 62.2727 281.975C54.3813 281.975 47.713 283.08 42.2679 285.29C36.8229 287.539 32.6996 290.754 29.8981 294.937C27.0967 299.119 25.696 304.111 25.696 309.911C25.696 315.75 27.0967 320.742 29.8981 324.885C32.6996 329.067 36.8229 332.263 42.2679 334.473C47.713 336.722 54.3813 337.846 62.2727 337.846ZM1.66661 384.899L122.879 384.899L122.879 434.97C122.879 444.045 121.103 451.877 117.552 458.467C114.04 465.095 109.128 470.205 102.815 473.796C96.5411 477.386 89.2416 479.182 80.9161 479.182C72.5512 479.182 65.2319 477.347 58.9583 473.677C52.7241 470.047 47.8906 464.859 44.4578 458.112C41.025 451.364 39.3087 443.355 39.3087 434.082L39.3087 403.187L62.391 403.187L62.391 428.637C62.391 433.056 63.1604 436.746 64.6993 439.705C66.2381 442.704 68.3885 444.972 71.1505 446.511C73.952 448.05 77.2072 448.819 80.9161 448.819C84.6646 448.819 87.9 448.05 90.6226 446.511C93.3846 444.972 95.5152 442.704 97.0146 439.705C98.514 436.706 99.2637 433.017 99.2637 428.637L99.2637 414.196L1.66661 414.196L1.66661 384.899Z" fill="#216000"/>
</svg>
